<?xml version="1.0" encoding="UTF-8"?>
<svg width="84" height="89" viewBox="0 0 84 89" fill="none" xmlns="http://www.w3.org/2000/svg">
<path d="M68.5909 89H15.4091C3.34091 89 0.204545 80.0594 0.0681818 79.7207C-0.0681818 79.3143 0 78.8402 0.272727 78.4338C0.545455 78.0951 0.954545 77.8242 1.43182 77.8242H21V80.6012H3.68182C5.11364 82.7687 8.52273 86.1553 15.4091 86.1553H68.5909C75.4091 86.1553 78.8182 82.7687 80.3182 80.6012H63V77.8919H82.5682C83.0455 77.8919 83.4546 78.0951 83.7273 78.5015C84 78.8402 84.0682 79.3143 83.9318 79.7885C83.7955 80.0594 80.6591 89 68.5909 89Z" fill="#43B0E6"/>
<path d="M60.2042 75.1143H23.7951V73.6919C23.7951 69.6957 22.2269 66.4446 20.1815 62.2452C16.9769 55.6074 12.6133 46.5313 12.6133 29.1919V27.7695H26.5906V30.5465H15.4087C15.6133 46.3281 19.5678 54.456 22.7042 61.026C24.5451 64.8867 26.1815 68.2733 26.5224 72.2695H57.4087C57.7496 68.2733 59.386 64.8867 61.2269 61.026C64.3633 54.456 68.3178 46.3281 68.5224 30.5465H34.9769V27.7695H71.386V29.1919C71.386 46.5313 67.0224 55.6074 63.8178 62.2452C61.7724 66.3768 60.2042 69.6957 60.2042 73.6919V75.1143Z" fill="#43B0E6"/>
<path d="M78.4087 66.7839H75.6133V36.1689H78.4087C81.4769 36.1689 83.9996 38.675 83.9996 41.723V61.1621C83.9996 64.2778 81.4769 66.7839 78.4087 66.7839ZM78.4087 38.946V64.0068C79.9769 64.0068 81.2042 62.7877 81.2042 61.2298V41.723C81.2042 40.1651 79.9087 38.946 78.4087 38.946Z" fill="#43B0E6"/>
<path d="M32.1822 27.8379H29.3867V37.5913H32.1822V27.8379Z" fill="#43B0E6"/>
<path d="M36.4094 50.054H25.2275V36.1689H36.4094V50.054ZM28.023 47.277H33.6139V38.946H28.023V47.277Z" fill="#43B0E6"/>
<path d="M77.0452 36.1689H70.0225V38.946H77.0452V36.1689Z" fill="#43B0E6"/>
<path d="M76.9774 63.9385H61.5684V66.7155H76.9774V63.9385Z" fill="#43B0E6"/>
<path d="M60.204 80.6688H23.7949V73.6924H26.5904V77.8918H57.4086V73.6924H60.204V80.6688Z" fill="#43B0E6"/>
<path d="M43.3638 66.7832H40.5684V69.5602H43.3638V66.7832Z" fill="#43B0E6"/>
<path d="M37.773 66.7832H34.9775V69.5602H37.773V66.7832Z" fill="#43B0E6"/>
<path d="M49.023 66.7832H46.2275V69.5602H49.023V66.7832Z" fill="#43B0E6"/>
<path d="M46.2276 25.0605H43.4322C43.4322 22.0126 45.9549 19.5065 49.0231 19.5065H57.4095C58.9776 19.5065 60.2049 18.2873 60.2049 16.7295C60.2049 15.1716 58.9776 13.9525 57.4095 13.9525H25.2276C22.1594 13.9525 19.6367 11.4464 19.6367 8.39843C19.6367 5.35049 22.1594 2.8444 25.2276 2.8444H46.2276C47.7958 2.8444 49.0231 1.62522 49.0231 0.0673828H51.8185C51.8185 3.11533 49.2958 5.62142 46.2276 5.62142H25.2276C23.6594 5.62142 22.4322 6.84059 22.4322 8.39843C22.4322 9.95627 23.6594 11.1755 25.2276 11.1755H57.4095C60.4776 11.1755 63.0004 13.6815 63.0004 16.7295C63.0004 19.7774 60.4776 22.2835 57.4095 22.2835H49.0231C47.4549 22.2835 46.2276 23.5027 46.2276 25.0605Z" fill="#43B0E6"/>
<path d="M33.6134 13.8844C30.5452 13.8844 28.0225 11.3783 28.0225 8.3304C28.0225 5.28246 30.5452 2.77637 33.6134 2.77637V5.55338C32.0452 5.55338 30.8179 6.77256 30.8179 8.3304C30.8179 9.88824 32.0452 11.1074 33.6134 11.1074V13.8844Z" fill="#43B0E6"/>
<path d="M37.773 25.0609H34.9775C34.9775 22.0129 37.5003 19.5068 40.5684 19.5068H50.3866V22.2839H40.5684C39.0684 22.2839 37.773 23.503 37.773 25.0609Z" fill="#43B0E6"/>
</svg>