<svg width="78" height="78" viewBox="0 0 78 78" fill="none" xmlns="http://www.w3.org/2000/svg">
<path d="M74.2258 17.6129H67.9355V1.25806C67.9355 0.562355 67.3719 0 66.6774 0H11.3226C10.6281 0 10.0645 0.562355 10.0645 1.25806V17.6129H3.77419C1.69335 17.6129 0 19.3063 0 21.3871V59.129C0 61.2099 1.69335 62.9032 3.77419 62.9032H28.9355V67.9355H27.6774C22.8213 67.9355 18.871 71.8871 18.871 76.7419C18.871 77.4376 19.4346 78 20.129 78H57.871C58.5654 78 59.129 77.4376 59.129 76.7419C59.129 71.8871 55.1787 67.9355 50.3226 67.9355H49.0645V62.9032H74.2258C76.3066 62.9032 78 61.2099 78 59.129V21.3871C78 19.3063 76.3066 17.6129 74.2258 17.6129ZM12.5806 12.5806H65.4194V55.3548H12.5806V12.5806ZM65.4194 2.51613V10.0645H12.5806V2.51613H65.4194ZM56.4858 75.4839H21.5142C22.0979 72.6167 24.6405 70.4516 27.6774 70.4516H50.3226C53.3608 70.4516 55.9021 72.6167 56.4858 75.4839ZM46.5484 67.9355H31.4516V62.9032H46.5484V67.9355ZM75.4839 59.129C75.4839 59.8235 74.919 60.3871 74.2258 60.3871H3.77419C3.081 60.3871 2.51613 59.8235 2.51613 59.129V21.3871C2.51613 20.6926 3.081 20.129 3.77419 20.129H10.0645V56.6129C10.0645 57.3086 10.6281 57.871 11.3226 57.871H66.6774C67.3719 57.871 67.9355 57.3086 67.9355 56.6129V20.129H74.2258C74.919 20.129 75.4839 20.6926 75.4839 21.3871V59.129Z" fill="#43B0E6"/>
<path d="M17.6129 5.03223H15.0968V7.54836H17.6129V5.03223Z" fill="#43B0E6"/>
<path d="M22.6452 5.03223H20.129V7.54836H22.6452V5.03223Z" fill="#43B0E6"/>
<path d="M27.6774 5.03223H25.1613V7.54836H27.6774V5.03223Z" fill="#43B0E6"/>
<path d="M62.9033 5.03223H30.1936V7.54836H62.9033V5.03223Z" fill="#43B0E6"/>
<path d="M50.3226 25.1613H50.0685C48.8997 19.4258 43.8172 15.0968 37.742 15.0968H27.6774C20.7405 15.0968 15.0968 20.7405 15.0968 27.6774C15.0968 34.6144 20.7405 40.2581 27.6774 40.2581H27.9316C29.1003 45.9936 34.1829 50.3226 40.2581 50.3226H50.3226C57.2596 50.3226 62.9033 44.6789 62.9033 37.742C62.9033 30.805 57.2596 25.1613 50.3226 25.1613ZM49.2646 32.7097H50.3226C53.0979 32.7097 55.3549 34.9667 55.3549 37.742C55.3549 40.5173 53.0979 42.7742 50.3226 42.7742H40.2581C38.4037 42.7742 36.7984 41.7552 35.9253 40.2581H37.742C42.89 40.2581 47.3196 37.1469 49.2646 32.7097ZM17.6129 27.6774C17.6129 22.1281 22.1281 17.6129 27.6774 17.6129H37.742C43.2913 17.6129 47.8065 22.1281 47.8065 27.6774C47.8065 33.2268 43.2913 37.742 37.742 37.742H35.2258C35.2258 36.8211 35.4925 35.9694 35.9253 35.2258H37.742C41.9049 35.2258 45.2903 31.8404 45.2903 27.6774C45.2903 23.5145 41.9049 20.1291 37.742 20.1291H27.6774C23.5145 20.1291 20.1291 23.5145 20.1291 27.6774C20.1291 31.8404 23.5145 35.2258 27.6774 35.2258H27.9316C27.7655 36.0385 27.6774 36.8802 27.6774 37.742C22.1281 37.742 17.6129 33.2268 17.6129 27.6774ZM28.7355 32.7097H27.6774C24.9022 32.7097 22.6452 30.4527 22.6452 27.6774C22.6452 24.9022 24.9022 22.6452 27.6774 22.6452H37.742C39.5963 22.6452 41.2016 23.6642 42.0747 25.1613H40.2581C35.1101 25.1613 30.6804 28.2725 28.7355 32.7097ZM50.3226 47.8065H40.2581C34.7088 47.8065 30.1936 43.2913 30.1936 37.742C30.1936 32.1926 34.7088 27.6774 40.2581 27.6774H42.7742C42.7742 28.5984 42.5075 29.4501 42.0747 30.1936H40.2581C36.0952 30.1936 32.7097 33.579 32.7097 37.742C32.7097 41.9049 36.0952 45.2903 40.2581 45.2903H50.3226C54.4855 45.2903 57.871 41.9049 57.871 37.742C57.871 33.579 54.4855 30.1936 50.3226 30.1936H50.0685C50.2345 29.3809 50.3226 28.5392 50.3226 27.6774C55.8719 27.6774 60.3871 32.1926 60.3871 37.742C60.3871 43.2913 55.8719 47.8065 50.3226 47.8065Z" fill="#43B0E6"/>
</svg>
